PathFileType	4	(X/Y/Z)	C:\Users\Basilio\Documents\Thesis Gigler\squatting_fais\c3dfiles\047\SJ_pre1\markers_experimental.trc
DataRate	CameraRate	NumFrames	NumMarkers	Units	OrigDataRate	OrigDataStartFrame	OrigNumFrames
200.000000	200.000000	4	61	mm	200.000000	1033	1653
Frame#	Time	FHD			LBHD			RBHD			C7			T10			CLAV			LSHO			LUUPA			LMUPA			LDUPA			LLEP			LMEP			LRAD			LUL			LRFIN			RSHO			RUPA1			RMUPA			RDUPA			RLEP			RMEP			RRAD			RUL			RUFIN			LASI			RASI			USACR			LSACR			RSACR			LTHI1			LTHI2			LTHI3			LTHI4			LLFC			LMFC			LTIB1			LTIB2			LTIB3			LTIB4			LLMAL			LMMAL			LMT1			LMT2			LMT5			RTHI			RTHI2			RTHI3			RTHI4			RLFC			RMFC			RTIB1			RTIB2			RTIB3			RTIB4			RLMAL			RMMAL			RHEE			RMT1			RMT2			RMT5			*60			
		X1	Y1	Z1	X2	Y2	Z2	X3	Y3	Z3	X4	Y4	Z4	X5	Y5	Z5	X6	Y6	Z6	X7	Y7	Z7	X8	Y8	Z8	X9	Y9	Z9	X10	Y10	Z10	X11	Y11	Z11	X12	Y12	Z12	X13	Y13	Z13	X14	Y14	Z14	X15	Y15	Z15	X16	Y16	Z16	X17	Y17	Z17	X18	Y18	Z18	X19	Y19	Z19	X20	Y20	Z20	X21	Y21	Z21	X22	Y22	Z22	X23	Y23	Z23	X24	Y24	Z24	X25	Y25	Z25	X26	Y26	Z26	X27	Y27	Z27	X28	Y28	Z28	X29	Y29	Z29	X30	Y30	Z30	X31	Y31	Z31	X32	Y32	Z32	X33	Y33	Z33	X34	Y34	Z34	X35	Y35	Z35	X36	Y36	Z36	X37	Y37	Z37	X38	Y38	Z38	X39	Y39	Z39	X40	Y40	Z40	X41	Y41	Z41	X42	Y42	Z42	X43	Y43	Z43	X44	Y44	Z44	X45	Y45	Z45	X46	Y46	Z46	X47	Y47	Z47	X48	Y48	Z48	X49	Y49	Z49	X50	Y50	Z50	X51	Y51	Z51	X52	Y52	Z52	X53	Y53	Z53	X54	Y54	Z54	X55	Y55	Z55	X56	Y56	Z56	X57	Y57	Z57	X58	Y58	Z58	X59	Y59	Z59	X60	Y60	Z60	X61	Y61	Z61	

1034	5.165	-129.9962158203125	2158.948974609375	-851.4541015625002	-294.7517089843751	2117.440185546875	-924.6484375000002	-308.6856079101563	2112.28466796875	-777.6065063476565	-330.8873596191407	1950.891479492188	-859.5692138671877	-293.5300903320313	1629.176635742188	-862.3729248046877	-160.925277709961	1941.711791992188	-864.2928466796877	-212.9824981689454	1977.881225585938	-1025.566650390625	-296.2554931640626	1852.458862304688	-1161.379272460938	-253.9228210449219	1831.853271484375	-1183.48583984375	-300.6614685058594	1799.33056640625	-1205.963012695313	-285.9363098144532	1735.264282226563	-1243.75830078125	-344.0479736328126	1701.504516601563	-1171.331176757813	-202.0880889892579	1554.71875	-1076.697998046875	-162.4844055175782	1521.8720703125	-1136.180053710938	-140.4960479736328	1546.116943359375	-1043.145629882813	-232.9915771484376	1971.58056640625	-704.7253417968751	-336.4361572265626	1840.872192382813	-578.4157714843751	-301.9305419921876	1818.867553710938	-550.0148315429689	-349.7840881347657	1785.268920898438	-537.0945434570314	-338.3775939941407	1718.267456054688	-501.4588012695314	-383.7010192871094	1681.581787109375	-575.9462890625001	-170.44775390625	1609.47021484375	-661.2570800781251	-153.4182739257813	1565.1513671875	-603.1581420898439	-122.2606277465821	1564.842651367188	-703.1806640625001	-110.3799667358399	1422.641723632813	-990.2453613281252	-103.18310546875	1411.3779296875	-757.1467895507814	-279.6974792480469	1505.89111328125	-865.3750000000002	-287.8739318847657	1476.343139648438	-895.5810546875002	-282.8093566894532	1472.79541015625	-837.8459472656252	-259.5043945312501	1286.4658203125	-1063.433715820313	-246.3692626953126	1205.06103515625	-1080.591918945313	-200.2676239013672	1197.0146484375	-1081.095947265625	-285.3807373046876	1158.484741210938	-1072.645263671875	-338.0467834472657	988.7402343750002	-1053.58642578125	-269.8624572753907	949.0511474609377	-958.802917480469	-308.8113098144532	784.1910400390627	-1023.519714355469	-352.3497619628907	762.2465209960939	-1097.310180664063	-318.3312683105469	747.3688354492189	-1068.061279296875	-333.6412658691407	664.8971557617189	-1055.776977539063	-415.5235595703126	583.3007202148439	-1095.653076171875	-358.7420349121094	579.9169921875001	-1026.836791992188	-314.9111938476563	446.494598388672	-1051.4638671875	-331.3703613281251	438.4844360351564	-1092.29736328125	-390.7875366210939	448.9786682128907	-1115.114501953125	-274.6079101562501	1247.603515625	-686.1590576171876	-255.4646148681641	1184.793579101563	-673.7934570312501	-223.0853118896485	1178.59619140625	-671.7257690429689	-299.0231933593751	1114.71875	-690.9546508789064	-327.2929382324219	966.5822753906252	-710.6197509765626	-261.5772399902344	945.0288085937502	-808.7451171875002	-307.8994750976563	837.452331542969	-703.7969360351564	-388.1734008789064	764.6456298828126	-690.1363525390626	-342.1230163574219	760.8388061523439	-682.4836425781251	-324.1055297851563	707.7644653320314	-704.8731079101564	-411.9681396484376	560.3641967773439	-696.4096069335939	-343.9634094238282	566.3159790039064	-761.2594604492189	-443.8006591796876	547.3131713867189	-769.4836425781252	-262.5992736816407	458.4735717773439	-706.1991577148439	-278.8387756347657	458.3694152832032	-663.1237182617189	-351.1698913574219	445.8775024414064	-637.2291870117189	nan	nan	nan	
1035	5.17	-131.7841949462891	2160.427490234375	-853.0527954101565	-297.3018798828126	2118.27587890625	-925.3199462890627	-311.2501831054688	2113.680419921875	-778.1975708007815	-332.2765197753907	1950.579956054688	-859.9614257812502	-293.2205505371094	1630.145874023438	-861.948913574219	-162.1660614013672	1943.11962890625	-864.732360839844	-214.5441894531251	1978.384399414063	-1026.008422851563	-297.2493896484376	1852.373291015625	-1161.411743164063	-255.4202880859376	1831.762939453125	-1183.1611328125	-300.8205261230469	1799.230224609375	-1206.000610351563	-285.9000854492188	1734.99951171875	-1243.60546875	-343.8420104980469	1701.109741210938	-1171.041137695313	-200.5146026611329	1555.814575195313	-1076.115600585938	-161.7615966796875	1522.469604492188	-1135.212524414063	-139.0098419189453	1547.233154296875	-1042.536010742188	-234.7924804687501	1972.9658203125	-705.0051269531251	-336.7432861328126	1841.716918945313	-577.7067871093751	-301.7500305175782	1819.935302734375	-550.0021362304689	-349.5739746093751	1785.9462890625	-536.4671630859376	-337.8395385742188	1719.140869140625	-501.1680603027345	-383.4321594238282	1682.053344726563	-575.2966918945314	-170.2542266845703	1610.343139648438	-660.5178222656251	-152.5833892822266	1566.1201171875	-602.6813354492189	-121.7560043334961	1565.898559570313	-702.2455444335939	-108.840805053711	1424.332275390625	-990.0256958007815	-101.180046081543	1412.956787109375	-757.4123535156251	-278.4431762695313	1507.112548828125	-864.9235839843752	-286.3558959960938	1477.636474609375	-895.1308593750002	-281.4138488769532	1474.199462890625	-837.262634277344	-258.9739074707032	1288.512329101563	-1063.106567382813	-245.7963409423829	1207.088745117188	-1080.482666015625	-199.7015075683594	1198.746704101563	-1081.229125976563	-285.1371154785157	1160.505126953125	-1072.662475585938	-338.5097045898438	991.1187133789065	-1053.902465820313	-269.9609680175782	950.9080200195315	-959.197937011719	-309.5202636718751	786.0294189453127	-1024.171997070313	-353.1598510742188	764.7564086914064	-1098.241088867188	-319.6631164550782	749.1615600585939	-1068.8603515625	-334.0591430664063	667.1652832031251	-1057.477172851563	-416.7244567871095	585.7185058593751	-1096.805786132813	-359.9703063964844	581.7506713867189	-1027.918090820313	-316.8589477539063	447.8390197753907	-1052.785278320313	-332.7693786621094	440.3594360351564	-1094.338134765625	-392.4973449707032	451.525604248047	-1116.568237304688	-272.7235107421876	1248.943237304688	-685.4001464843751	-253.6612243652344	1185.928344726563	-673.5610961914064	-221.2795104980469	1179.742797851563	-671.5288696289064	-297.9193725585938	1116.20556640625	-690.6293334960939	-327.3375244140626	968.1680908203127	-709.9562377929689	-262.5706176757813	947.0664672851565	-808.772155761719	-308.1781005859376	839.3439941406252	-703.4587402343751	-388.3934326171876	766.6193847656251	-689.2910156250001	-342.4793701171876	762.5261840820314	-682.6071166992189	-325.0253906250001	709.7140502929689	-705.6175537109376	-413.4998474121095	562.3660888671876	-695.2122192382814	-346.1419982910157	568.3909912109376	-760.7993164062501	-445.8507385253907	549.5127563476564	-768.2241821289065	-263.7654113769532	461.0723266601564	-705.3800659179689	-280.2359008789063	460.4593200683595	-663.0130004882814	-352.4813537597657	448.1520385742189	-636.5449829101564	nan	nan	nan	
1036	5.175	-134.39453125	2161.228759765625	-852.5738525390627	-298.7330322265626	2118.73095703125	-925.951843261719	-313.2554016113282	2114.5927734375	-778.9036865234377	-333.9377136230469	1950.77587890625	-860.4243164062502	-292.3143920898438	1630.870727539063	-861.6459960937502	-163.5008850097657	1944.026733398438	-864.8848876953127	-215.3625030517579	1978.624267578125	-1026.386596679688	-297.2940673828126	1851.603271484375	-1161.605712890625	-255.2222442626954	1831.547485351563	-1183.553344726563	-301.2895812988282	1798.725219726563	-1205.87890625	-286.1127929687501	1734.405151367188	-1243.437133789063	-343.7376708984376	1700.495239257813	-1170.779541015625	-199.6080474853516	1556.21728515625	-1075.3291015625	-160.3193511962891	1522.819458007813	-1134.443969726563	-137.6438293457032	1548.33349609375	-1042.073486328125	-236.4211425781251	1974.015380859375	-705.3618164062501	-336.9854431152344	1842.482666015625	-576.8922119140626	-301.7467956542969	1820.283447265625	-549.8012695312501	-349.3468322753907	1786.593872070313	-535.6840209960939	-337.4633789062501	1719.57421875	-500.6475830078126	-383.1745300292969	1682.394165039063	-574.7916259765626	-169.7828521728516	1611.026000976563	-659.7047729492189	-151.8515014648438	1566.827514648438	-601.7701416015626	-120.7559051513672	1567.076049804688	-701.4368896484376	-107.9133758544922	1425.3720703125	-989.3303222656252	-99.67335510253909	1413.897705078125	-756.9721069335939	-277.0636596679688	1508.347534179688	-864.2636718750002	-285.2468566894532	1478.85546875	-894.5594482421877	-279.9575500488282	1475.198120117188	-836.8020019531252	-258.2546081542969	1290.068725585938	-1062.86669921875	-245.4602050781251	1208.931274414063	-1080.106567382813	-199.400375366211	1200.435913085938	-1081.14697265625	-284.8321228027344	1162.226928710938	-1072.564697265625	-338.6093139648438	992.8245849609377	-1054.019409179688	-269.8171081542969	952.4759521484377	-959.6154785156252	-310.0880126953126	788.1458129882815	-1025.214965820313	-354.0165100097657	766.5019531250001	-1098.944946289063	-320.5313415527344	750.7245483398439	-1069.268310546875	-334.3876953125001	669.2153320312501	-1058.602905273438	-418.1538391113282	588.2592773437501	-1097.830322265625	-361.0329284667969	583.5454101562501	-1029.239624023438	-317.9278869628907	450.4290466308595	-1054.58935546875	-333.9761962890626	442.156707763672	-1095.380126953125	-393.6887512207032	453.287567138672	-1118.04443359375	-271.3410644531251	1250.056518554688	-684.4487304687501	-252.5774688720704	1187.235107421875	-672.2495117187501	-220.0190124511719	1180.693237304688	-671.2307739257814	-296.6438293457032	1117.40234375	-690.0186157226564	-327.0974731445313	969.711853027344	-709.5170288085939	-263.0583190917969	948.5101318359377	-809.3826904296877	-308.5435485839844	840.8735351562502	-703.1480712890626	-388.8394775390626	768.4925537109377	-688.5017700195314	-342.7615051269532	764.1270751953126	-682.2221679687501	-325.8372192382813	710.9273681640626	-704.4187011718751	-414.8231201171876	564.4390258789064	-694.5349731445314	-347.4440002441407	570.2674560546876	-760.8316650390626	-447.376190185547	551.6904296875001	-767.2995605468751	-266.0449829101563	462.5162353515626	-705.5612182617189	-281.5409545898438	461.9578552246095	-663.5670776367189	-353.5830078125001	450.1634216308595	-636.1798706054689	nan	nan	nan	
1037	5.18	-136.1264038085938	2162.10107421875	-853.6082763671877	-301.0047912597657	2118.936279296875	-926.610778808594	-315.3811340332032	2115.3046875	-779.7469482421877	-335.1870117187501	1951.108764648438	-860.803894042969	-291.5280456542969	1631.456176757813	-861.1256103515627	-165.0997161865235	1944.762817382813	-864.8963623046877	-216.4600830078126	1978.619018554688	-1026.902099609375	-298.5087585449219	1851.48486328125	-1161.483032226563	-256.1081542968751	1831.072998046875	-1183.526611328125	-302.0447998046876	1797.697265625	-1205.851928710938	-286.3690185546876	1733.780517578125	-1243.3134765625	-343.5932006835938	1699.578857421875	-1170.549072265625	-198.4969177246094	1556.573364257813	-1074.781494140625	-159.0112457275391	1523.126953125	-1134.087036132813	-135.930404663086	1548.611450195313	-1041.547973632813	-238.1894989013672	1974.724731445313	-705.5177612304689	-336.9460449218751	1842.9404296875	-576.5215454101564	-301.3710327148438	1820.714599609375	-549.8031616210939	-349.0968933105469	1786.946533203125	-535.0512084960939	-336.9344177246094	1719.968139648438	-500.1859436035157	-382.8196716308594	1682.757080078125	-574.0576782226564	-168.8746185302735	1611.579345703125	-658.9415283203126	-151.2138061523438	1567.387939453125	-600.7630004882814	-120.0815582275391	1567.5234375	-700.3220214843751	-106.7073135375977	1426.3671875	-988.9584960937502	-98.10663604736331	1414.827270507813	-756.6635742187501	-276.0022277832032	1509.295776367188	-863.8020019531252	-283.8379211425782	1479.703857421875	-894.108581542969	-278.7425842285157	1476.310791015625	-836.3342285156252	-257.4342346191407	1291.548950195313	-1062.463012695313	-245.2198333740235	1209.763305664063	-1079.932495117188	-198.9609375000001	1201.452026367188	-1081.073364257813	-284.5971984863282	1163.746337890625	-1072.292602539063	-338.9206542968751	994.5278320312502	-1054.177001953125	-269.9712829589844	953.6668090820315	-960.0245361328127	-310.6608276367188	789.4837036132815	-1025.958618164063	-354.9112243652344	768.1909790039065	-1099.56884765625	-321.1412048339844	752.6765747070314	-1070.249877929688	-336.0898742675782	670.7660522460939	-1059.21630859375	-418.9520568847657	589.5854492187501	-1098.715576171875	-361.8964233398438	585.0266113281251	-1029.861206054688	-319.6765747070313	451.3166503906251	-1055.45751953125	-335.9438781738282	444.3041381835939	-1096.620971679688	-395.4673767089845	455.4207763671876	-1119.36669921875	-269.9339599609376	1251.191650390625	-683.8742675781251	-251.3707275390626	1188.167358398438	-672.0040893554689	-218.8344116210938	1181.741455078125	-670.9313354492189	-296.0815124511719	1118.738525390625	-688.9677734375001	-326.7522277832032	971.051208496094	-709.3492431640626	-263.6116027832032	950.2649536132815	-809.5595703125002	-308.4855041503907	842.2063598632815	-703.2044677734376	-389.5554809570314	770.0153808593752	-688.2089843750001	-343.2910156250001	765.6875610351564	-682.0068969726564	-326.6469726562501	712.6946411132814	-705.3677368164064	-415.8441467285157	566.0611572265626	-694.0709228515626	-348.8481445312501	571.7651367187501	-760.8586425781251	-449.4488830566407	553.4094238281251	-766.6131591796876	-268.1296997070313	463.0238342285157	-706.1140747070314	-283.1885375976563	463.3213500976564	-664.2072753906251	-354.8741149902344	451.9131774902345	-636.0100708007814	nan	nan	nan	
